<svg xmlns="http://www.w3.org/2000/svg" viewBox="0 0 778.94 114.6"><defs><style>.a{fill:#020202;}</style></defs><title>logo</title><path class="a" d="M199.86,302.6q10.31,8.27,10.31,22.77,0,14.82-10.82,23.71a45.82,45.82,0,0,1-7.3,4.52,50.67,50.67,0,0,1-9,3.43,100.46,100.46,0,0,1-17.35,2.81,34.51,34.51,0,0,1-4.47.31h-4q-5,0-8-.23t-3.35-.23a1.65,1.65,0,0,1-1.55-1.72v-11.7q0-1.56,1.89-1.56H199q7.56-7.66,7.56-19.37a28.09,28.09,0,0,0-2.4-11.72,32.23,32.23,0,0,1-3.52.16h-4.72q-2.92,0-6.18-.16t-6.87-.47q-19.41-2.34-29.37-10.78Q143,293.79,143,279.1q0-15,10.82-23.44a44.72,44.72,0,0,1,16.32-7.5q3.95-.94,8.24-1.56a81.6,81.6,0,0,1,9.1-.78,104.72,104.72,0,0,1,13.83.24q5.58.55,5.93.55,1.55.31,1.55,1.57v13.07q0,1.73-1.89,1.73H151.6a26.44,26.44,0,0,0-5,16.22,28,28,0,0,0,3.09,13.41q3.61-.31,9.36-.55a80.09,80.09,0,0,1,12.45.55Q190.24,294.49,199.86,302.6Zm-34.35,54.12q3.26-.15,7-.7a68.51,68.51,0,0,0,7.64-1.56,59.31,59.31,0,0,0,7.64-2.57,40.12,40.12,0,0,0,7-3.74H148v8.42q2.23.31,6.87.47A96.44,96.44,0,0,0,165.51,356.72Zm17.86-46.79q5.84.62,10.82.7a76,76,0,0,0,8.24-.23,21.1,21.1,0,0,0-5-5.3,35.26,35.26,0,0,0-11.08-6,64.15,64.15,0,0,0-12.71-2.89,102.51,102.51,0,0,0-12.28-.78q-5.84,0-9.62.31a21.24,21.24,0,0,0,4.12,4.21Q165.34,307.9,183.37,309.93ZM156.24,258.3a11.66,11.66,0,0,1-1.55,1.25h50.5v-9.67q-2.23-.31-7-.62a89.44,89.44,0,0,0-10.56,0q-3.61.16-7.73.62a60.35,60.35,0,0,0-8.33,1.56,61.78,61.78,0,0,0-8.16,2.73A31.93,31.93,0,0,0,156.24,258.3Z" transform="translate(-143.01 -245.71)"/><path class="a" d="M298.64,245.82q1.87,0,1.87,1.72V358.6q0,1.72-1.87,1.71H285.2q-1.87,0-1.87-1.71V312.74H247.26V358.6a1.52,1.52,0,0,1-1.72,1.71H231.81a1.52,1.52,0,0,1-1.72-1.71V247.54a1.52,1.52,0,0,1,1.72-1.72h13.74a1.52,1.52,0,0,1,1.72,1.71v48.83h36.07V247.53q0-1.71,1.87-1.71Zm-64.94,3.43v47.11h10V249.25Zm0,50.54v9.51h10v-9.51Zm10,12.95h-10v44.14h10Zm39.68-3.43v-9.51H247.26v9.51Zm3.61-60.05v60.05h10V249.25Zm10,107.63V312.74h-10v44.14Z" transform="translate(-143.01 -245.71)"/><path class="a" d="M397,301a38.36,38.36,0,0,1,.26,4.91,84.08,84.08,0,0,1-.6,10.53q-1.72,17.63-8.93,28.7-9.79,15-28,15-18,0-28.34-14.82a56.19,56.19,0,0,1-6.1-12.63,82.71,82.71,0,0,1-3.69-16.07,101.48,101.48,0,0,1-.94-10.84q-.09-4.29-.09-4.76v-53.5q0-1.71,1.87-1.72h13.95q1.87,0,1.87,1.72v55.53a108.37,108.37,0,0,0,1,13.88,62.53,62.53,0,0,0,3,11.62,24.86,24.86,0,0,0,6.29,9.91,14.89,14.89,0,0,0,10.85,4.21H385a46.21,46.21,0,0,0,5.6-13.34A93.48,93.48,0,0,0,393,315.93a90.48,90.48,0,0,0,.52-10.37q-.09-4.21-.09-4.37V245.82H397Zm-72.82.16q0,.16.09,4.37a90.19,90.19,0,0,0,.94,10.37,107.83,107.83,0,0,0,2.83,13.41A46.91,46.91,0,0,0,334,342.69h14.43a3.73,3.73,0,0,1-1.2-.86,7.41,7.41,0,0,0-1.2-1q-7.56-7.33-10.13-23.4a65.39,65.39,0,0,1-1.12-10q-.09-4.21-.09-4.52V249.25H324.21ZM374.86,353a28.41,28.41,0,0,0,7.91-6.92H336.49q8.78,10.61,23.23,10.61A30.29,30.29,0,0,0,374.86,353Z" transform="translate(-143.01 -245.71)"/><path class="a" d="M435.5,249.25v47.11h35.72q1.89,0,1.89,1.72V311q0,1.72-1.89,1.72H435.5v44h53.76v3.43H420.2q-1.87,0-1.87-1.71V247.54q0-1.71,1.87-1.72h69.06v3.43Zm-3.61,0h-10v47.11h10Zm-10,60.05h10v-9.51h-10Zm10,3.43h-10v44h10Zm3.61-12.95v9.51h34v-9.51Z" transform="translate(-143.01 -245.71)"/><path class="a" d="M589.39,357.81a1.5,1.5,0,0,1-.17,1.56,2.25,2.25,0,0,1-1.55.62H573.93a1.58,1.58,0,0,1-1.72-1.09l-20.44-47.57a71,71,0,0,1-15.11,2.34q-6,.47-10.65.39a67.37,67.37,0,0,1-7-.39V360h-3.61V248.47a1.65,1.65,0,0,1,1.55-1.72q.34,0,5.93-.55a105.41,105.41,0,0,1,13.83-.23,80.39,80.39,0,0,1,17.35,2.5A46.51,46.51,0,0,1,570.33,256q10.82,8.42,10.82,23.24t-11,23.71a16.78,16.78,0,0,1-2.58,1.87ZM519,310.4q1.55.16,4.38.23t6.44.08l-1.2-54-.17-.16h.17l-.17-7.33q-3.27.16-5.67.31t-3.78.31Zm48.91-51.94a45.61,45.61,0,0,0-11-5.69q-7.42-2.88-20.52-3.35a18.44,18.44,0,0,0-2.33-.16h-2.15l.17,6.86,21.9,51.16a48.61,48.61,0,0,0,8.36-3.35,40.9,40.9,0,0,0,5.6-3.51q9.65-7.8,9.66-21.21Q577.54,265.95,567.89,258.46ZM536.32,310.4q3.95-.31,7.47-.86t6.61-1.33L532.2,265.79l1,44.77a14.12,14.12,0,0,0,1.46-.08C535.2,310.42,535.75,310.4,536.32,310.4Zm48.78,46.33-20.61-50.07a64.73,64.73,0,0,1-9.1,3.74l19.75,46.33Z" transform="translate(-143.01 -245.71)"/><path class="a" d="M613.44,343.93a1.52,1.52,0,0,1,1.72,1.72v12.63a1.52,1.52,0,0,1-1.72,1.72H599.7q-1.89,0-1.89-1.72V345.65q0-1.71,1.89-1.72Zm-1.89,3.28H601.41v9.51h10.13Z" transform="translate(-143.01 -245.71)"/><path class="a" d="M693,343.62q1.72,0,1.72,1.57v13.23a1.53,1.53,0,0,1-1.72,1.73H627.86q-1.89,0-1.89-1.71V247.69q0-1.71,1.87-1.72h13.61c1.25,0,1.87.57,1.87,1.71v95.93Zm-53.24-94.37H629.58v94.37h10.13Zm0,97.8H629.58v9.67h10.13Zm51.35,0H643.32v9.67h47.75Z" transform="translate(-143.01 -245.71)"/><path class="a" d="M729,246q1.89,0,1.89,1.72V358.44q0,1.72-1.89,1.71H715.46a1.52,1.52,0,0,1-1.72-1.71V247.69a1.52,1.52,0,0,1,1.72-1.72Zm-11.68,3.28v9.51h10v-9.51Zm10,107.47V262h-10v94.68Z" transform="translate(-143.01 -245.71)"/><path class="a" d="M827.11,245.82c1.25,0,1.87.57,1.87,1.72V358.28q0,1.72-1.89,1.72H813.53a1.58,1.58,0,0,1-1.72-1.09L771.45,257.05V358.28c0,1.15-.63,1.72-1.87,1.72H756.14q-1.87,0-1.87-1.72V247.54q0-1.71,1.89-1.72h13.57a1.59,1.59,0,0,1,1.72,1.09v.16l40.36,101.7V247.54q0-1.71,1.87-1.72Zm-59.27,3.43h-10V356.57h10Zm57.54,0h-10V356.57h10Z" transform="translate(-143.01 -245.71)"/><path class="a" d="M921.73,357.81c.34.42.28.94-.17,1.56a1.73,1.73,0,0,1-1.55.78H906.79a1.8,1.8,0,0,1-1.72-.94L879,307.43l-11.34,22.3v28.7a1.52,1.52,0,0,1-1.72,1.71H852.34a1.52,1.52,0,0,1-1.72-1.71V247.54a1.52,1.52,0,0,1,1.72-1.72h13.57a1.52,1.52,0,0,1,1.72,1.72v29.64L879,299.48l25.76-51a1.8,1.8,0,0,1,1.72-.94h13.22a1.73,1.73,0,0,1,1.55.78,1.49,1.49,0,0,1,.17,1.56l-26.45,53.5ZM864,356.72V248.94h-9.79V356.72Zm12.88-53.19-9.27-18.41v36.65Zm4.12,0,5,9.83,5-10-5-9.83Zm7-14,4.81,10,24-48.67h-9.45Zm29.2,67.23-24.39-49.29-4.81,10L908,356.72Z" transform="translate(-143.01 -245.71)"/></svg>